<svg width="450" height="439" viewBox="0 0 450 439" fill="none" xmlns="http://www.w3.org/2000/svg">
<path d="M150.5 353.3C150.5 355.1 148.4 356.6 145.8 356.6C142.8 356.9 140.7 355.4 140.7 353.3C140.7 351.5 142.8 350 145.4 350C148.2 349.8 150.5 351.2 150.5 353.3ZM122.3 349.2C121.7 351 123.5 353.1 126.2 353.6C128.6 354.5 131.3 353.6 131.8 351.8C132.3 350 130.6 347.9 127.9 347.1C125.6 346.5 122.9 347.4 122.3 349.2ZM162.4 347.7C159.8 348.3 158 350.1 158.2 352.1C158.5 353.9 160.8 355.1 163.6 354.5C166.2 353.9 168 352.1 167.8 350.3C167.5 348.6 165 347.4 162.4 347.7ZM222.1 0C96.3 0 0 95.6 0 221.4C0 322 63.3 408.1 153.8 438.4C165.4 440.5 169.5 433.3 169.5 427.4C169.5 421.8 169.2 390.7 169.2 371.7C169.2 371.7 105.7 385.3 92.4 344.7C92.4 344.7 82.1 318.3 67.2 311.5C67.2 311.5 46.4 297.3 68.7 297.5C68.7 297.5 91.3 299.3 103.7 320.9C123.6 355.9 156.9 345.8 169.8 339.9C171.9 325.4 177.8 315.3 184.3 309.3C133.6 303.7 82.4 296.3 82.4 209C82.4 184.1 89.3 171.5 103.8 155.6C101.4 149.7 93.7 125.4 106.2 94C125.2 88.1 168.8 118.5 168.8 118.5C186.9 113.4 206.5 110.8 225.8 110.8C245.1 110.8 264.6 113.4 282.8 118.5C282.8 118.5 326.4 88 345.4 94C357.8 125.5 350.1 149.7 347.8 155.6C362.3 171.7 371.2 184.2 371.2 209C371.2 296.6 317.8 303.5 267 309.3C275.3 316.5 282.4 330.1 282.4 351.4C282.4 382 282.1 419.8 282.1 427.2C282.1 433.1 286.3 440.3 297.8 438.2C388.5 408.1 450 322 450 221.4C450 95.6 347.9 0 222.1 0ZM88.2 312.9C87 313.8 87.3 315.9 88.8 317.6C90.3 319.1 92.3 319.7 93.5 318.5C94.7 317.6 94.4 315.5 92.9 313.8C91.5 312.4 89.4 311.8 88.2 312.9ZM78.4 305.6C77.8 306.8 78.7 308.2 80.5 309.1C82 310 83.8 309.7 84.4 308.5C85 307.3 84.1 305.9 82.3 305C80.5 304.4 79 304.7 78.4 305.6ZM107.8 337.9C106.3 339.1 106.9 341.8 109 343.5C111.1 345.6 113.7 345.9 114.9 344.4C116.1 343.2 115.5 340.5 113.7 338.8C111.7 336.7 109 336.4 107.8 337.9ZM97.4 324.5C95.9 325.4 95.9 327.8 97.4 329.9C98.9 332 101.3 332.9 102.5 332C104 330.8 104 328.5 102.5 326.4C101.2 324.3 98.9 323.4 97.4 324.5Z" fill="black"/>
</svg>
