<svg width="450" height="450" viewBox="0 0 450 450" fill="none" xmlns="http://www.w3.org/2000/svg">
<path d="M150.5 359.3C150.5 361.1 148.4 362.6 145.8 362.6C142.8 362.9 140.7 361.4 140.7 359.3C140.7 357.5 142.8 356 145.4 356C148.2 355.8 150.5 357.2 150.5 359.3ZM122.3 355.2C121.7 357 123.5 359.1 126.2 359.6C128.6 360.5 131.3 359.6 131.8 357.8C132.3 356 130.6 353.9 127.9 353.1C125.6 352.5 122.9 353.4 122.3 355.2ZM162.4 353.7C159.8 354.3 158 356.1 158.2 358.1C158.5 359.9 160.8 361.1 163.6 360.5C166.2 359.9 168 358.1 167.8 356.3C167.5 354.6 165 353.4 162.4 353.7ZM222.1 6C96.3 6 0 101.6 0 227.4C0 328 63.3 414.1 153.8 444.4C165.4 446.5 169.5 439.3 169.5 433.4C169.5 427.8 169.2 396.7 169.2 377.7C169.2 377.7 105.7 391.3 92.4 350.7C92.4 350.7 82.1 324.3 67.2 317.5C67.2 317.5 46.4 303.3 68.7 303.5C68.7 303.5 91.3 305.3 103.7 326.9C123.6 361.9 156.9 351.8 169.8 345.9C171.9 331.4 177.8 321.3 184.3 315.3C133.6 309.7 82.4 302.3 82.4 215C82.4 190.1 89.3 177.5 103.8 161.6C101.4 155.7 93.7 131.4 106.2 100C125.2 94.1 168.8 124.5 168.8 124.5C186.9 119.4 206.5 116.8 225.8 116.8C245.1 116.8 264.6 119.4 282.8 124.5C282.8 124.5 326.4 94 345.4 100C357.8 131.5 350.1 155.7 347.8 161.6C362.3 177.7 371.2 190.2 371.2 215C371.2 302.6 317.8 309.5 267 315.3C275.3 322.5 282.4 336.1 282.4 357.4C282.4 388 282.1 425.8 282.1 433.2C282.1 439.1 286.3 446.3 297.8 444.2C388.5 414.1 450 328 450 227.4C450 101.6 347.9 6 222.1 6ZM88.2 318.9C87 319.8 87.3 321.9 88.8 323.6C90.3 325.1 92.3 325.7 93.5 324.5C94.7 323.6 94.4 321.5 92.9 319.8C91.5 318.4 89.4 317.8 88.2 318.9ZM78.4 311.6C77.8 312.8 78.7 314.2 80.5 315.1C82 316 83.8 315.7 84.4 314.5C85 313.3 84.1 311.9 82.3 311C80.5 310.4 79 310.7 78.4 311.6ZM107.8 343.9C106.3 345.1 106.9 347.8 109 349.5C111.1 351.6 113.7 351.9 114.9 350.4C116.1 349.2 115.5 346.5 113.7 344.8C111.7 342.7 109 342.4 107.8 343.9ZM97.4 330.5C95.9 331.4 95.9 333.8 97.4 335.9C98.9 338 101.3 338.9 102.5 338C104 336.8 104 334.5 102.5 332.4C101.2 330.3 98.9 329.4 97.4 330.5Z" fill="black"/>
</svg>
