<svg width="166" height="48" viewBox="0 0 166 48" fill="none" xmlns="http://www.w3.org/2000/svg">
<path d="M44.3916 18.872C45.0316 17.912 45.3516 17.016 45.3516 16.184C45.3516 15.352 45.117 14.6907 44.6476 14.2C44.1783 13.7093 43.5596 13.464 42.7916 13.464C42.0236 13.464 41.405 13.656 40.9356 14.04C40.4663 14.4027 40.2316 14.9893 40.2316 15.8C40.2316 16.5893 40.7863 18.0187 41.8956 20.088C43.005 22.1573 43.709 23.4907 44.0076 24.088C44.8183 25.7093 45.2236 27.2773 45.2236 28.792C45.2236 30.6907 44.5303 32.2373 43.1436 33.432C41.7783 34.6053 40.157 35.192 38.2796 35.192C36.4236 35.192 34.9623 34.616 33.8956 33.464C32.829 32.2907 32.2956 30.9253 32.2956 29.368C32.2956 26.488 34.077 24.1093 37.6396 22.232C36.189 19.3733 35.4636 17.3787 35.4636 16.248C35.4636 14.6693 36.093 13.336 37.3516 12.248C38.6316 11.1387 40.189 10.584 42.0236 10.584C43.8796 10.584 45.2983 11.0533 46.2796 11.992C47.261 12.9307 47.7516 14.1253 47.7516 15.576C47.7516 16.536 47.4316 17.6347 46.7916 18.872H44.3916ZM36.0076 31.352C36.5836 31.9707 37.277 32.28 38.0876 32.28C38.9196 32.28 39.5596 32.0453 40.0076 31.576C40.477 31.0853 40.7116 30.3707 40.7116 29.432C40.7116 28.5787 40.381 27.5333 39.7196 26.296C39.6343 26.1253 39.4743 25.816 39.2396 25.368C39.005 24.8987 38.8343 24.568 38.7276 24.376C36.3383 25.6133 35.1436 27.1707 35.1436 29.048C35.1436 30.008 35.4316 30.776 36.0076 31.352ZM61.9366 35.16C59.974 35.16 58.6726 34.4773 58.0326 33.112C56.9233 34.4987 55.494 35.192 53.7446 35.192C52.0166 35.192 50.5553 34.6053 49.3606 33.432C48.1873 32.2587 47.6006 30.712 47.6006 28.792C47.6006 25.9973 48.422 23.768 50.0646 22.104C51.7073 20.44 53.7873 19.608 56.3046 19.608C56.3686 19.608 56.4326 19.608 56.4966 19.608C57.5633 19.608 58.5446 19.7893 59.4406 20.152C60.0166 19.7893 60.71 19.608 61.5206 19.608C62.3526 19.608 62.95 19.7147 63.3126 19.928C63.1206 21.5067 62.918 23.064 62.7046 24.6C62.4913 26.1147 62.342 27.192 62.2566 27.832C62.0646 29.2827 61.9686 30.328 61.9686 30.968C61.9686 31.8213 62.31 32.248 62.9926 32.248C63.526 32.248 64.0913 31.896 64.6886 31.192C65.286 30.4667 65.8086 29.336 66.2566 27.8C66.8753 28.3547 67.302 28.9733 67.5366 29.656C66.918 31.6827 66.086 33.112 65.0406 33.944C63.9953 34.7547 62.9606 35.16 61.9366 35.16ZM56.7846 22.104C55.4193 22.104 54.3313 22.6267 53.5206 23.672C52.7313 24.696 52.262 26.232 52.1126 28.28C52.0913 28.472 52.0806 28.6533 52.0806 28.824C52.0806 29.8693 52.326 30.7013 52.8166 31.32C53.3286 31.9387 53.9793 32.248 54.7686 32.248C56.1126 32.248 57.126 31.2987 57.8086 29.4L58.5766 22.488C57.958 22.232 57.3606 22.104 56.7846 22.104ZM69.5159 35.224C68.2145 35.224 67.1905 34.8613 66.4439 34.136C65.6972 33.3893 65.3239 32.376 65.3239 31.096C65.3239 30.7547 65.8999 25.688 67.0519 15.896C67.3505 13.3787 68.1505 11.7893 69.4519 11.128C70.0492 10.808 70.7639 10.648 71.5959 10.648C74.4119 10.648 75.8199 11.9493 75.8199 14.552C75.8199 14.7653 75.8092 14.9893 75.7879 15.224C75.5745 18.0827 73.7825 20.9947 70.4119 23.96C70.3052 25.0053 70.1879 26.0187 70.0599 27C69.8039 29.1973 69.6759 30.4133 69.6759 30.648C69.6759 31.7573 70.1559 32.312 71.1159 32.312C72.1612 32.312 73.1319 31.7147 74.0279 30.52C74.9452 29.304 75.6492 27.7573 76.1399 25.88C76.3319 25.944 76.5985 26.1253 76.9399 26.424C77.2812 26.7013 77.5159 26.9467 77.6439 27.16C77.3025 28.9307 76.5345 30.6267 75.3399 32.248C74.7425 33.08 73.9852 33.7627 73.0679 34.296C72.0225 34.9147 70.8385 35.224 69.5159 35.224ZM70.7639 20.76C72.7265 18.6053 73.7079 16.6747 73.7079 14.968C73.7079 13.944 73.3239 13.432 72.5559 13.432C72.0652 13.4747 71.7345 13.7947 71.5639 14.392C71.4145 14.9893 71.2652 15.96 71.1159 17.304C70.9879 18.648 70.9025 19.48 70.8599 19.8L70.7639 20.76ZM79.2971 35.224C77.9958 35.224 76.9718 34.8613 76.2251 34.136C75.4785 33.3893 75.1051 32.376 75.1051 31.096C75.1051 30.7547 75.6811 25.688 76.8331 15.896C77.1318 13.3787 77.9318 11.7893 79.2331 11.128C79.8305 10.808 80.5451 10.648 81.3771 10.648C84.1931 10.648 85.6011 11.9493 85.6011 14.552C85.6011 14.7653 85.5905 14.9893 85.5691 15.224C85.3558 18.0827 83.5638 20.9947 80.1931 23.96C80.0865 25.0053 79.9691 26.0187 79.8411 27C79.5851 29.1973 79.4571 30.4133 79.4571 30.648C79.4571 31.7573 79.9371 32.312 80.8971 32.312C81.9425 32.312 82.9131 31.7147 83.8091 30.52C84.7265 29.304 85.4305 27.7573 85.9211 25.88C86.1131 25.944 86.3798 26.1253 86.7211 26.424C87.0625 26.7013 87.2971 26.9467 87.4251 27.16C87.0838 28.9307 86.3158 30.6267 85.1211 32.248C84.5238 33.08 83.7665 33.7627 82.8491 34.296C81.8038 34.9147 80.6198 35.224 79.2971 35.224ZM80.5451 20.76C82.5078 18.6053 83.4891 16.6747 83.4891 14.968C83.4891 13.944 83.1051 13.432 82.3371 13.432C81.8465 13.4747 81.5158 13.7947 81.3451 14.392C81.1958 14.9893 81.0465 15.96 80.8971 17.304C80.7691 18.648 80.6838 19.48 80.6411 19.8L80.5451 20.76ZM92.2056 17.848C92.2056 15.5653 93.1976 13.7733 95.1816 12.472C97.1656 11.1707 99.4483 10.52 102.03 10.52C105.336 10.52 108.238 11.4693 110.734 13.368C111.971 14.328 112.931 15.608 113.614 17.208C114.296 18.7867 114.638 20.536 114.638 22.456C114.638 26.232 113.56 29.304 111.406 31.672C109.166 34.0827 106.36 35.288 102.99 35.288C102.243 35.288 101.454 35.192 100.622 35C99.7896 34.808 99.1283 34.552 98.6376 34.232C97.8483 34.8293 96.835 35.128 95.5976 35.128C94.3816 35.128 93.4323 34.7867 92.7496 34.104C92.067 33.4213 91.7256 32.5467 91.7256 31.48C91.7256 28.9627 93.635 26.8187 97.4536 25.048C97.5603 24.152 97.7096 22.9467 97.9016 21.432C98.115 19.896 98.275 18.6587 98.3816 17.72C98.5096 16.7813 98.595 16.1627 98.6376 15.864C99.5123 15.3093 100.526 15.032 101.678 15.032C102.211 15.032 102.723 15.0853 103.214 15.192L101.198 28.856C101.006 30.072 100.739 31.0853 100.398 31.896C101.059 32.0667 101.592 32.152 101.998 32.152C104.451 32.152 106.35 31.224 107.694 29.368C109.08 27.4267 109.774 25.08 109.774 22.328C109.774 18.808 108.504 16.28 105.966 14.744C104.558 13.8907 103.011 13.464 101.326 13.464C99.171 13.464 97.4643 14.0507 96.2056 15.224C95.4803 15.8853 95.1176 16.6853 95.1176 17.624C95.1176 18.1147 95.267 18.584 95.5656 19.032C95.8643 19.4587 96.387 19.704 97.1336 19.768L96.8136 21.848C95.2563 21.7627 94.0936 21.336 93.3256 20.568C92.579 19.7787 92.2056 18.872 92.2056 17.848ZM94.0936 31.064C94.0936 31.832 94.4563 32.216 95.1816 32.216C95.4803 32.216 95.7896 32.024 96.1096 31.64C96.451 31.2347 96.6856 30.6053 96.8136 29.752L97.1016 27.768C95.0963 28.8987 94.0936 29.9973 94.0936 31.064ZM129.874 35.16C127.911 35.16 126.61 34.4773 125.97 33.112C124.861 34.4987 123.431 35.192 121.682 35.192C119.954 35.192 118.493 34.6053 117.298 33.432C116.125 32.2587 115.538 30.712 115.538 28.792C115.538 25.9973 116.359 23.768 118.002 22.104C119.645 20.44 121.725 19.608 124.242 19.608C124.306 19.608 124.37 19.608 124.434 19.608C125.501 19.608 126.482 19.7893 127.378 20.152C127.954 19.7893 128.647 19.608 129.458 19.608C130.29 19.608 130.887 19.7147 131.25 19.928C131.058 21.5067 130.855 23.064 130.642 24.6C130.429 26.1147 130.279 27.192 130.194 27.832C130.002 29.2827 129.906 30.328 129.906 30.968C129.906 31.8213 130.247 32.248 130.93 32.248C131.463 32.248 132.029 31.896 132.626 31.192C133.223 30.4667 133.746 29.336 134.194 27.8C134.813 28.3547 135.239 28.9733 135.474 29.656C134.855 31.6827 134.023 33.112 132.978 33.944C131.933 34.7547 130.898 35.16 129.874 35.16ZM124.722 22.104C123.357 22.104 122.269 22.6267 121.458 23.672C120.669 24.696 120.199 26.232 120.05 28.28C120.029 28.472 120.018 28.6533 120.018 28.824C120.018 29.8693 120.263 30.7013 120.754 31.32C121.266 31.9387 121.917 32.248 122.706 32.248C124.05 32.248 125.063 31.2987 125.746 29.4L126.514 22.488C125.895 22.232 125.298 22.104 124.722 22.104ZM136.685 19.576C138.072 19.576 138.883 19.928 139.117 20.632C140.12 19.928 141.389 19.576 142.925 19.576C144.461 19.576 145.784 20.2053 146.893 21.464C148.003 22.7227 148.557 24.1947 148.557 25.88C148.557 26.1147 148.547 26.36 148.525 26.616C148.291 29.4107 147.352 31.544 145.709 33.016C144.067 34.4667 141.923 35.192 139.277 35.192C138.68 35.192 138.029 35.1173 137.325 34.968L136.301 43.768H132.109C133.475 32.0133 134.392 24.0347 134.861 19.832C135.309 19.6613 135.917 19.576 136.685 19.576ZM144.045 26.104C144.045 25.1653 143.832 24.3333 143.405 23.608C142.979 22.8827 142.317 22.52 141.421 22.52C140.205 22.52 139.277 23.3093 138.637 24.888C138.211 28.0453 137.965 29.88 137.901 30.392C137.88 31.032 138.083 31.512 138.509 31.832C138.936 32.152 139.459 32.312 140.077 32.312C141.165 32.312 142.061 31.8213 142.765 30.84C143.619 29.624 144.045 28.0453 144.045 26.104ZM153.623 19.576C155.01 19.576 155.82 19.928 156.055 20.632C157.058 19.928 158.327 19.576 159.863 19.576C161.399 19.576 162.722 20.2053 163.831 21.464C164.94 22.7227 165.495 24.1947 165.495 25.88C165.495 26.1147 165.484 26.36 165.463 26.616C165.228 29.4107 164.29 31.544 162.647 33.016C161.004 34.4667 158.86 35.192 156.215 35.192C155.618 35.192 154.967 35.1173 154.263 34.968L153.239 43.768H149.047C150.412 32.0133 151.33 24.0347 151.799 19.832C152.247 19.6613 152.855 19.576 153.623 19.576ZM160.983 26.104C160.983 25.1653 160.77 24.3333 160.343 23.608C159.916 22.8827 159.255 22.52 158.359 22.52C157.143 22.52 156.215 23.3093 155.575 24.888C155.148 28.0453 154.903 29.88 154.839 30.392C154.818 31.032 155.02 31.512 155.447 31.832C155.874 32.152 156.396 32.312 157.015 32.312C158.103 32.312 158.999 31.8213 159.703 30.84C160.556 29.624 160.983 28.0453 160.983 26.104Z" fill="black"/>
<path d="M16.342 29.4129L18.3268 31.474C18.5814 31.7382 18.5814 32.4925 18.3268 32.7567L9.56814 41.8489C9.47217 41.9483 9.36639 42 9.25913 42C9.15188 42 9.04609 41.9483 8.95012 41.8489L0.191441 32.7567C0.134224 32.6968 0.0861383 32.6052 0.0525408 32.4919C0.0189432 32.3787 0.00115338 32.2483 0.00115338 32.1153C0.00115338 31.9823 0.0189432 31.852 0.0525408 31.7387C0.0861383 31.6255 0.134224 31.5338 0.191441 31.474L2.17742 29.4129L8.33095 35.8002C8.9154 36.4056 9.60402 36.4056 10.1873 35.8002L16.3408 29.4105L16.342 29.4129ZM8.95012 5.15113C9.04609 5.05174 9.15188 5 9.25913 5C9.36639 5 9.47217 5.05174 9.56814 5.15113L18.3268 14.2409C18.384 14.3011 18.432 14.3931 18.4656 14.5065C18.4991 14.6199 18.5168 14.7504 18.5168 14.8835C18.5168 15.0165 18.4991 15.147 18.4656 15.2605C18.432 15.3739 18.384 15.4658 18.3268 15.526L9.56814 24.6134C9.47217 24.7128 9.36639 24.7645 9.25913 24.7645C9.15188 24.7645 9.04609 24.7128 8.95012 24.6134L0.191441 15.526C0.133921 15.4664 0.0855408 15.3747 0.0517262 15.2612C0.0179117 15.1477 0 15.0169 0 14.8835C0 14.75 0.0179117 14.6192 0.0517262 14.5057C0.0855408 14.3922 0.133921 14.3005 0.191441 14.2409L8.95012 5.15113Z" fill="url(#paint0_linear_10_174)"/>
<path d="M16.3421 20.7962L18.3269 22.8573C18.5815 23.1215 18.5815 23.8758 18.3269 24.14L9.56821 33.2298C9.47224 33.3292 9.36645 33.3809 9.2592 33.3809C9.15195 33.3809 9.04616 33.3292 8.95019 33.2298L0.191508 24.14C0.134292 24.0802 0.0862057 23.9885 0.0526081 23.8753C0.0190105 23.762 0.0012207 23.6317 0.0012207 23.4987C0.0012207 23.3657 0.0190105 23.2353 0.0526081 23.122C0.0862057 23.0088 0.134292 22.9171 0.191508 22.8573L2.17749 20.7962L8.33102 27.1836C8.91547 27.7889 9.60408 27.7889 10.1874 27.1836L16.3421 20.7962Z" fill="url(#paint1_linear_10_174)"/>
<path d="M12.5988 13.104C13.4415 13.7227 13.8628 14.4533 13.8628 15.296C13.8628 16.1387 13.5321 16.816 12.8708 17.328C12.2095 17.84 11.3775 18.096 10.3748 18.096C9.72415 18.096 9.18015 17.936 8.74281 17.616C8.31615 17.2853 8.10281 16.88 8.10281 16.4C8.10281 15.92 8.26281 15.5413 8.58281 15.264C8.90281 14.976 9.30281 14.8 9.78281 14.736C9.55881 15.056 9.44681 15.3653 9.44681 15.664C9.44681 15.952 9.54815 16.1867 9.75081 16.368C9.95348 16.5493 10.2095 16.64 10.5188 16.64C10.8281 16.64 11.0841 16.528 11.2868 16.304C11.4895 16.0693 11.5908 15.8027 11.5908 15.504C11.5908 15.0133 11.3615 14.576 10.9028 14.192C10.6255 13.968 10.3268 13.76 10.0068 13.568C9.68681 13.3653 9.51615 13.2587 9.49481 13.248C9.45215 13.216 9.40948 13.1893 9.36681 13.168C9.17481 13.392 8.89748 13.7013 8.53481 14.096C8.17215 14.48 7.88415 14.7893 7.67081 15.024C7.07348 15.6747 6.73748 16.2187 6.66281 16.656C6.64148 16.7413 6.63081 16.9067 6.63081 17.152C6.63081 17.3867 6.70015 17.632 6.83881 17.888C6.98815 18.144 7.16415 18.336 7.36681 18.464C7.56948 18.592 7.76681 18.6933 7.95881 18.768C8.16148 18.8533 8.33215 18.912 8.47081 18.944C8.62015 18.976 8.69481 18.9973 8.69481 19.008C8.69481 19.0827 8.57748 19.168 8.34281 19.264C7.90548 19.424 7.44681 19.504 6.96681 19.504C6.49748 19.504 6.03881 19.3333 5.59081 18.992C4.98281 18.5227 4.67881 17.8987 4.67881 17.12C4.67881 16.64 4.80148 16.1653 5.04681 15.696C5.48415 14.864 6.50815 13.7227 8.11881 12.272C7.72415 11.8773 7.52681 11.456 7.52681 11.008C7.52681 10.56 7.69215 10.1813 8.02281 9.872C8.36415 9.56267 8.76415 9.408 9.22281 9.408C9.63881 9.408 10.0015 9.57333 10.3108 9.904C10.5135 10.128 10.6148 10.4107 10.6148 10.752C10.6148 11.0933 10.5028 11.4773 10.2788 11.904C11.4201 12.416 12.1935 12.816 12.5988 13.104ZM9.12681 11.296C9.38281 11.0293 9.51081 10.8373 9.51081 10.72C9.51081 10.4533 9.39348 10.3093 9.15881 10.288C8.89215 10.288 8.75881 10.4373 8.75881 10.736C8.75881 10.9173 8.88148 11.104 9.12681 11.296Z" fill="white"/>
<defs>
<linearGradient id="paint0_linear_10_174" x1="9.25889" y1="5" x2="9.25889" y2="42" gradientUnits="userSpaceOnUse">
<stop stop-color="#FE65FE"/>
<stop offset="1" stop-color="#9010FF"/>
</linearGradient>
<linearGradient id="paint1_linear_10_174" x1="9.25954" y1="20.7962" x2="9.25954" y2="33.3809" gradientUnits="userSpaceOnUse">
<stop stop-color="#FE65FE"/>
<stop offset="1" stop-color="#9010FF"/>
</linearGradient>
</defs>
</svg>
